<svg xmlns="http://www.w3.org/2000/svg" xmlns:xlink="http://www.w3.org/1999/xlink" width="500" zoomAndPan="magnify" viewBox="0 0 375 374.999991" height="500" preserveAspectRatio="xMidYMid meet" version="1.0"><defs><clipPath id="385ef864b5"><path d="M 148 70 L 354 70 L 354 368.71875 L 148 368.71875 Z M 148 70 " clip-rule="nonzero"/></clipPath><clipPath id="26d8ee62dd"><path d="M 21.175781 6.46875 L 227 6.46875 L 227 304 L 21.175781 304 Z M 21.175781 6.46875 " clip-rule="nonzero"/></clipPath></defs><g clip-path="url(#385ef864b5)"><path fill="#2e3c46" d="M 353.632812 367.117188 C 344.070312 351.871094 334.496094 336.628906 324.910156 321.386719 L 310.53125 298.574219 L 296.097656 275.753906 L 267.179688 230.152344 L 240.054688 187.433594 L 274.980469 136.144531 L 284.175781 122.660156 C 287.253906 118.171875 290.304688 113.671875 293.402344 109.195312 L 311.980469 82.355469 L 319.492188 71.503906 L 220.425781 70.839844 L 218.339844 74.570312 C 215.289062 80.035156 212.300781 85.535156 209.289062 91.019531 L 207.035156 95.140625 L 204.816406 99.285156 L 200.347656 107.542969 L 191.519531 124.117188 L 187.015625 132.667969 C 185.300781 130.0625 183.582031 127.460938 181.863281 124.863281 L 176.597656 116.984375 L 171.277344 109.128906 L 165.960938 101.296875 L 160.566406 93.5 C 156.957031 88.300781 153.289062 83.136719 149.570312 78.015625 C 149.464844 77.832031 149.308594 77.710938 149.101562 77.660156 C 148.894531 77.605469 148.699219 77.632812 148.515625 77.738281 C 148.335938 77.847656 148.214844 78.003906 148.160156 78.207031 C 148.109375 78.414062 148.132812 78.609375 148.242188 78.792969 C 150.941406 84.511719 153.714844 90.195312 156.566406 95.847656 L 160.828125 104.316406 L 165.148438 112.761719 L 169.503906 121.179688 L 173.898438 129.570312 C 176.859375 135.148438 179.808594 140.730469 182.808594 146.289062 L 187.136719 154.308594 L 192.289062 146.222656 C 195.652344 140.9375 198.9375 135.625 202.261719 130.320312 L 212.140625 114.363281 L 217.042969 106.351562 L 219.488281 102.363281 L 221.914062 98.371094 C 224.371094 94.3125 226.828125 90.253906 229.261719 86.1875 C 231.203125 86.1875 290.429688 85.960938 292.785156 85.914062 L 282.605469 102.078125 C 279.714844 106.683594 276.769531 111.25 273.847656 115.847656 L 265.058594 129.59375 L 229.859375 184.574219 L 228.027344 187.433594 L 229.859375 190.09375 L 260.378906 234.640625 L 290.964844 279.140625 L 306.253906 301.378906 L 321.601562 323.59375 C 331.820312 338.421875 342.078125 353.21875 352.371094 367.980469 C 352.488281 368.152344 352.648438 368.257812 352.851562 368.296875 C 353.054688 368.335938 353.242188 368.300781 353.417969 368.183594 C 353.589844 368.070312 353.695312 367.910156 353.738281 367.707031 C 353.78125 367.503906 353.746094 367.316406 353.632812 367.140625 Z M 353.632812 367.117188 " fill-opacity="1" fill-rule="nonzero"/></g><g clip-path="url(#26d8ee62dd)"><path fill="#2e3c46" d="M 218.492188 278.828125 L 214.230469 270.347656 L 209.914062 261.914062 L 205.554688 253.496094 L 201.160156 245.105469 C 198.199219 239.519531 195.253906 233.933594 192.25 228.382812 L 187.921875 220.359375 L 182.769531 228.449219 C 179.402344 233.726562 176.121094 239.046875 172.796875 244.351562 L 162.910156 260.308594 L 158.015625 268.320312 L 155.5625 272.3125 L 153.140625 276.300781 C 150.691406 280.363281 148.253906 284.425781 145.828125 288.488281 C 143.886719 288.488281 84.660156 288.71875 82.300781 288.765625 L 92.453125 272.601562 C 95.351562 267.996094 98.296875 263.421875 101.214844 258.832031 L 110.003906 245.078125 L 145.203125 190.097656 L 147.03125 187.238281 L 145.203125 184.582031 L 114.683594 140.128906 L 84.101562 95.71875 L 68.808594 73.527344 L 53.449219 51.359375 C 43.238281 36.574219 32.984375 21.8125 22.6875 7.078125 C 22.570312 6.914062 22.414062 6.808594 22.21875 6.769531 C 22.019531 6.726562 21.835938 6.757812 21.664062 6.867188 C 21.488281 6.980469 21.375 7.136719 21.328125 7.339844 C 21.28125 7.542969 21.3125 7.734375 21.421875 7.910156 C 30.996094 23.132812 40.570312 38.34375 50.144531 53.546875 L 64.527344 76.347656 L 78.960938 99.109375 L 107.871094 144.628906 L 135.003906 187.246094 L 100.097656 238.535156 L 90.902344 252.019531 C 87.824219 256.5 84.777344 261.007812 81.675781 265.484375 L 63.097656 292.324219 L 55.589844 303.175781 L 154.65625 303.839844 L 156.75 300.074219 C 159.804688 294.609375 162.796875 289.113281 165.800781 283.628906 L 168.054688 279.503906 L 174.757812 267.117188 L 183.539062 250.5625 L 188.039062 242.019531 L 193.195312 249.8125 L 198.460938 257.691406 L 203.777344 265.550781 L 209.097656 273.382812 L 214.488281 281.179688 C 218.097656 286.375 221.761719 291.535156 225.488281 296.660156 C 225.601562 296.816406 225.753906 296.914062 225.945312 296.953125 C 226.136719 296.992188 226.316406 296.960938 226.484375 296.859375 C 226.652344 296.761719 226.765625 296.617188 226.820312 296.429688 C 226.878906 296.246094 226.867188 296.0625 226.78125 295.886719 C 224.105469 290.183594 221.34375 284.496094 218.492188 278.828125 Z M 218.492188 278.828125 " fill-opacity="1" fill-rule="nonzero"/></g></svg>